<?xml version="1.0" encoding="utf-8"?>
<!-- Generator: Adobe Illustrator 16.0.0, SVG Export Plug-In . SVG Version: 6.00 Build 0)  -->
<!DOCTYPE svg PUBLIC "-//W3C//DTD SVG 1.1//EN" "http://www.w3.org/Graphics/SVG/1.1/DTD/svg11.dtd">
<svg version="1.1" id="Layer_1" xmlns="http://www.w3.org/2000/svg" xmlns:xlink="http://www.w3.org/1999/xlink" x="0px" y="0px"
	 width="654.347px" height="227.536px" viewBox="0 0 654.347 227.536" enable-background="new 0 0 654.347 227.536"
	 xml:space="preserve">
<g>
	<g>
		<defs>
			<polygon id="SVGID_1_" points="639.55,212.464 639.55,17.202 541.919,114.831 			"/>
		</defs>
		<clipPath id="SVGID_2_">
			<use xlink:href="#SVGID_1_"  overflow="visible"/>
		</clipPath>
		<g clip-path="url(#SVGID_2_)">
			
				<line fill="none" stroke="#FFFFFF" stroke-width="2.2073" stroke-miterlimit="10" x1="551.318" y1="286.229" x2="551.318" y2="14.171"/>
			
				<line fill="none" stroke="#FFFFFF" stroke-width="2.2073" stroke-miterlimit="10" x1="554.445" y1="286.229" x2="554.445" y2="14.171"/>
			
				<line fill="none" stroke="#FFFFFF" stroke-width="2.2073" stroke-miterlimit="10" x1="557.92" y1="286.229" x2="557.92" y2="14.171"/>
			
				<line fill="none" stroke="#FFFFFF" stroke-width="2.2073" stroke-miterlimit="10" x1="548.5" y1="286.229" x2="548.5" y2="14.171"/>
			
				<line fill="none" stroke="#FFFFFF" stroke-width="2.2073" stroke-miterlimit="10" x1="542.849" y1="286.229" x2="542.849" y2="14.171"/>
			
				<line fill="none" stroke="#FFFFFF" stroke-width="2.2073" stroke-miterlimit="10" x1="566.071" y1="286.229" x2="566.071" y2="14.171"/>
			
				<line fill="none" stroke="#FFFFFF" stroke-width="2.2073" stroke-miterlimit="10" x1="544.229" y1="286.229" x2="544.229" y2="14.171"/>
			
				<line fill="none" stroke="#FFFFFF" stroke-width="2.2073" stroke-miterlimit="10" x1="545.968" y1="286.229" x2="545.968" y2="14.171"/>
			
				<line fill="none" stroke="#FFFFFF" stroke-width="2.2073" stroke-miterlimit="10" x1="561.781" y1="286.229" x2="561.781" y2="14.171"/>
			
				<line fill="none" stroke="#FFFFFF" stroke-width="2.2073" stroke-miterlimit="10" x1="638.547" y1="286.229" x2="638.547" y2="14.171"/>
			
				<line fill="none" stroke="#FFFFFF" stroke-width="2.2073" stroke-miterlimit="10" x1="603.9" y1="286.229" x2="603.9" y2="14.171"/>
			
				<line fill="none" stroke="#FFFFFF" stroke-width="2.2073" stroke-miterlimit="10" x1="622.835" y1="286.229" x2="622.835" y2="14.171"/>
			
				<line fill="none" stroke="#FFFFFF" stroke-width="2.2073" stroke-miterlimit="10" x1="612.872" y1="286.229" x2="612.872" y2="14.171"/>
			
				<line fill="none" stroke="#FFFFFF" stroke-width="2.2073" stroke-miterlimit="10" x1="582.02" y1="286.229" x2="582.02" y2="14.171"/>
			
				<line fill="none" stroke="#FFFFFF" stroke-width="2.2073" stroke-miterlimit="10" x1="595.827" y1="286.229" x2="595.827" y2="14.171"/>
			
				<line fill="none" stroke="#FFFFFF" stroke-width="2.2073" stroke-miterlimit="10" x1="570.839" y1="286.229" x2="570.839" y2="14.171"/>
			
				<line fill="none" stroke="#FFFFFF" stroke-width="2.2073" stroke-miterlimit="10" x1="576.136" y1="286.229" x2="576.136" y2="14.171"/>
			
				<line fill="none" stroke="#FFFFFF" stroke-width="2.2073" stroke-miterlimit="10" x1="588.561" y1="286.229" x2="588.561" y2="14.171"/>
		</g>
	</g>
	<g>
		<defs>
			<polygon id="SVGID_3_" points="444.29,17.202 444.29,212.464 541.919,114.835 			"/>
		</defs>
		<clipPath id="SVGID_4_">
			<use xlink:href="#SVGID_3_"  overflow="visible"/>
		</clipPath>
		<g clip-path="url(#SVGID_4_)">
			
				<line fill="none" stroke="#FFFFFF" stroke-width="2.2073" stroke-miterlimit="10" x1="532.521" y1="-56.562" x2="532.521" y2="215.495"/>
			
				<line fill="none" stroke="#FFFFFF" stroke-width="2.2073" stroke-miterlimit="10" x1="529.396" y1="-56.562" x2="529.396" y2="215.495"/>
			
				<line fill="none" stroke="#FFFFFF" stroke-width="2.2073" stroke-miterlimit="10" x1="525.919" y1="-56.562" x2="525.919" y2="215.495"/>
			
				<line fill="none" stroke="#FFFFFF" stroke-width="2.2073" stroke-miterlimit="10" x1="535.339" y1="-56.562" x2="535.339" y2="215.495"/>
			
				<line fill="none" stroke="#FFFFFF" stroke-width="2.2073" stroke-miterlimit="10" x1="540.992" y1="-56.562" x2="540.992" y2="215.495"/>
			
				<line fill="none" stroke="#FFFFFF" stroke-width="2.2073" stroke-miterlimit="10" x1="517.769" y1="-56.562" x2="517.769" y2="215.495"/>
			
				<line fill="none" stroke="#FFFFFF" stroke-width="2.2073" stroke-miterlimit="10" x1="539.612" y1="-56.562" x2="539.612" y2="215.495"/>
			
				<line fill="none" stroke="#FFFFFF" stroke-width="2.2073" stroke-miterlimit="10" x1="537.873" y1="-56.562" x2="537.873" y2="215.495"/>
			
				<line fill="none" stroke="#FFFFFF" stroke-width="2.2073" stroke-miterlimit="10" x1="522.058" y1="-56.562" x2="522.058" y2="215.495"/>
			
				<line fill="none" stroke="#FFFFFF" stroke-width="2.2073" stroke-miterlimit="10" x1="445.292" y1="-56.562" x2="445.292" y2="215.495"/>
			
				<line fill="none" stroke="#FFFFFF" stroke-width="2.2073" stroke-miterlimit="10" x1="479.94" y1="-56.562" x2="479.94" y2="215.495"/>
			
				<line fill="none" stroke="#FFFFFF" stroke-width="2.2073" stroke-miterlimit="10" x1="461.002" y1="-56.562" x2="461.002" y2="215.495"/>
			
				<line fill="none" stroke="#FFFFFF" stroke-width="2.2073" stroke-miterlimit="10" x1="470.969" y1="-56.562" x2="470.969" y2="215.495"/>
			
				<line fill="none" stroke="#FFFFFF" stroke-width="2.2073" stroke-miterlimit="10" x1="501.82" y1="-56.562" x2="501.82" y2="215.495"/>
			
				<line fill="none" stroke="#FFFFFF" stroke-width="2.2073" stroke-miterlimit="10" x1="488.013" y1="-56.562" x2="488.013" y2="215.495"/>
			<line fill="none" stroke="#FFFFFF" stroke-width="2.2073" stroke-miterlimit="10" x1="513" y1="-56.562" x2="513" y2="215.495"/>
			
				<line fill="none" stroke="#FFFFFF" stroke-width="2.2073" stroke-miterlimit="10" x1="507.705" y1="-56.562" x2="507.705" y2="215.495"/>
			
				<line fill="none" stroke="#FFFFFF" stroke-width="2.2073" stroke-miterlimit="10" x1="495.28" y1="-56.562" x2="495.28" y2="215.495"/>
		</g>
	</g>
	<g>
		<defs>
			<polygon id="SVGID_5_" points="444.29,212.464 639.55,212.464 541.921,114.833 			"/>
		</defs>
		<clipPath id="SVGID_6_">
			<use xlink:href="#SVGID_5_"  overflow="visible"/>
		</clipPath>
		<g clip-path="url(#SVGID_6_)">
			
				<line fill="none" stroke="#FFFFFF" stroke-width="2.2073" stroke-miterlimit="10" x1="370.525" y1="124.232" x2="642.582" y2="124.232"/>
			
				<line fill="none" stroke="#FFFFFF" stroke-width="2.2073" stroke-miterlimit="10" x1="370.525" y1="127.357" x2="642.582" y2="127.357"/>
			
				<line fill="none" stroke="#FFFFFF" stroke-width="2.2073" stroke-miterlimit="10" x1="370.525" y1="130.834" x2="642.582" y2="130.834"/>
			
				<line fill="none" stroke="#FFFFFF" stroke-width="2.2073" stroke-miterlimit="10" x1="370.525" y1="121.414" x2="642.582" y2="121.414"/>
			
				<line fill="none" stroke="#FFFFFF" stroke-width="2.2073" stroke-miterlimit="10" x1="370.525" y1="115.763" x2="642.582" y2="115.763"/>
			
				<line fill="none" stroke="#FFFFFF" stroke-width="2.2073" stroke-miterlimit="10" x1="370.525" y1="138.984" x2="642.582" y2="138.984"/>
			
				<line fill="none" stroke="#FFFFFF" stroke-width="2.2073" stroke-miterlimit="10" x1="370.525" y1="117.142" x2="642.582" y2="117.142"/>
			
				<line fill="none" stroke="#FFFFFF" stroke-width="2.2073" stroke-miterlimit="10" x1="370.525" y1="118.882" x2="642.582" y2="118.882"/>
			
				<line fill="none" stroke="#FFFFFF" stroke-width="2.2073" stroke-miterlimit="10" x1="370.525" y1="134.695" x2="642.582" y2="134.695"/>
			
				<line fill="none" stroke="#FFFFFF" stroke-width="2.2073" stroke-miterlimit="10" x1="370.525" y1="211.462" x2="642.582" y2="211.462"/>
			
				<line fill="none" stroke="#FFFFFF" stroke-width="2.2073" stroke-miterlimit="10" x1="370.525" y1="176.813" x2="642.582" y2="176.813"/>
			
				<line fill="none" stroke="#FFFFFF" stroke-width="2.2073" stroke-miterlimit="10" x1="370.525" y1="195.749" x2="642.582" y2="195.749"/>
			
				<line fill="none" stroke="#FFFFFF" stroke-width="2.2073" stroke-miterlimit="10" x1="370.525" y1="185.784" x2="642.582" y2="185.784"/>
			
				<line fill="none" stroke="#FFFFFF" stroke-width="2.2073" stroke-miterlimit="10" x1="370.525" y1="154.934" x2="642.582" y2="154.934"/>
			
				<line fill="none" stroke="#FFFFFF" stroke-width="2.2073" stroke-miterlimit="10" x1="370.525" y1="168.739" x2="642.582" y2="168.739"/>
			
				<line fill="none" stroke="#FFFFFF" stroke-width="2.2073" stroke-miterlimit="10" x1="370.525" y1="143.753" x2="642.582" y2="143.753"/>
			
				<line fill="none" stroke="#FFFFFF" stroke-width="2.2073" stroke-miterlimit="10" x1="370.525" y1="149.049" x2="642.582" y2="149.049"/>
			
				<line fill="none" stroke="#FFFFFF" stroke-width="2.2073" stroke-miterlimit="10" x1="370.525" y1="161.474" x2="642.582" y2="161.474"/>
		</g>
	</g>
</g>
<g>
	<defs>
		<polygon id="SVGID_7_" points="639.55,17.202 444.29,17.202 541.917,114.833 		"/>
	</defs>
	<clipPath id="SVGID_8_">
		<use xlink:href="#SVGID_7_"  overflow="visible"/>
	</clipPath>
	<g clip-path="url(#SVGID_8_)">
		
			<line fill="none" stroke="#FFFFFF" stroke-width="2.2073" stroke-miterlimit="10" x1="713.315" y1="105.435" x2="441.258" y2="105.435"/>
		
			<line fill="none" stroke="#FFFFFF" stroke-width="2.2073" stroke-miterlimit="10" x1="713.315" y1="102.31" x2="441.258" y2="102.31"/>
		
			<line fill="none" stroke="#FFFFFF" stroke-width="2.2073" stroke-miterlimit="10" x1="713.315" y1="98.833" x2="441.258" y2="98.833"/>
		
			<line fill="none" stroke="#FFFFFF" stroke-width="2.2073" stroke-miterlimit="10" x1="713.315" y1="108.252" x2="441.258" y2="108.252"/>
		
			<line fill="none" stroke="#FFFFFF" stroke-width="2.2073" stroke-miterlimit="10" x1="713.315" y1="113.904" x2="441.258" y2="113.904"/>
		
			<line fill="none" stroke="#FFFFFF" stroke-width="2.2073" stroke-miterlimit="10" x1="713.315" y1="90.682" x2="441.258" y2="90.682"/>
		
			<line fill="none" stroke="#FFFFFF" stroke-width="2.2073" stroke-miterlimit="10" x1="713.315" y1="112.524" x2="441.258" y2="112.524"/>
		
			<line fill="none" stroke="#FFFFFF" stroke-width="2.2073" stroke-miterlimit="10" x1="713.315" y1="110.785" x2="441.258" y2="110.785"/>
		
			<line fill="none" stroke="#FFFFFF" stroke-width="2.2073" stroke-miterlimit="10" x1="713.315" y1="94.972" x2="441.258" y2="94.972"/>
		
			<line fill="none" stroke="#FFFFFF" stroke-width="2.2073" stroke-miterlimit="10" x1="713.315" y1="18.204" x2="441.258" y2="18.204"/>
		
			<line fill="none" stroke="#FFFFFF" stroke-width="2.2073" stroke-miterlimit="10" x1="713.315" y1="52.854" x2="441.258" y2="52.854"/>
		
			<line fill="none" stroke="#FFFFFF" stroke-width="2.2073" stroke-miterlimit="10" x1="713.315" y1="33.917" x2="441.258" y2="33.917"/>
		
			<line fill="none" stroke="#FFFFFF" stroke-width="2.2073" stroke-miterlimit="10" x1="713.315" y1="43.882" x2="441.258" y2="43.882"/>
		
			<line fill="none" stroke="#FFFFFF" stroke-width="2.2073" stroke-miterlimit="10" x1="713.315" y1="74.732" x2="441.258" y2="74.732"/>
		
			<line fill="none" stroke="#FFFFFF" stroke-width="2.2073" stroke-miterlimit="10" x1="713.315" y1="60.927" x2="441.258" y2="60.927"/>
		
			<line fill="none" stroke="#FFFFFF" stroke-width="2.2073" stroke-miterlimit="10" x1="713.315" y1="85.913" x2="441.258" y2="85.913"/>
		
			<line fill="none" stroke="#FFFFFF" stroke-width="2.2073" stroke-miterlimit="10" x1="713.315" y1="80.618" x2="441.258" y2="80.618"/>
		
			<line fill="none" stroke="#FFFFFF" stroke-width="2.2073" stroke-miterlimit="10" x1="713.315" y1="68.192" x2="441.258" y2="68.192"/>
	</g>
</g>
<g>
	<g>
		<defs>
			<polygon id="SVGID_9_" points="426.55,16.127 230.55,15.899 230.55,213.456 426.55,213.683 			"/>
		</defs>
		<clipPath id="SVGID_10_">
			<use xlink:href="#SVGID_9_"  overflow="visible"/>
		</clipPath>
		<g clip-path="url(#SVGID_10_)">
			<defs>
				<polygon id="SVGID_11_" points="327.457,17.202 327.457,212.464 425.087,114.835 				"/>
			</defs>
			<clipPath id="SVGID_12_">
				<use xlink:href="#SVGID_11_"  overflow="visible"/>
			</clipPath>
			<g clip-path="url(#SVGID_12_)">
				
					<line fill="none" stroke="#FFFFFF" stroke-width="2.2073" stroke-miterlimit="10" x1="415.689" y1="-56.562" x2="415.689" y2="215.495"/>
				
					<line fill="none" stroke="#FFFFFF" stroke-width="2.2073" stroke-miterlimit="10" x1="412.563" y1="-56.562" x2="412.563" y2="215.495"/>
				
					<line fill="none" stroke="#FFFFFF" stroke-width="2.2073" stroke-miterlimit="10" x1="409.086" y1="-56.562" x2="409.086" y2="215.495"/>
				
					<line fill="none" stroke="#FFFFFF" stroke-width="2.2073" stroke-miterlimit="10" x1="418.506" y1="-56.562" x2="418.506" y2="215.495"/>
				
					<line fill="none" stroke="#FFFFFF" stroke-width="2.2073" stroke-miterlimit="10" x1="424.158" y1="-56.562" x2="424.158" y2="215.495"/>
				
					<line fill="none" stroke="#FFFFFF" stroke-width="2.2073" stroke-miterlimit="10" x1="400.936" y1="-56.562" x2="400.936" y2="215.495"/>
				
					<line fill="none" stroke="#FFFFFF" stroke-width="2.2073" stroke-miterlimit="10" x1="422.779" y1="-56.562" x2="422.779" y2="215.495"/>
				
					<line fill="none" stroke="#FFFFFF" stroke-width="2.2073" stroke-miterlimit="10" x1="421.04" y1="-56.562" x2="421.04" y2="215.495"/>
				
					<line fill="none" stroke="#FFFFFF" stroke-width="2.2073" stroke-miterlimit="10" x1="405.226" y1="-56.562" x2="405.226" y2="215.495"/>
				
					<line fill="none" stroke="#FFFFFF" stroke-width="2.2073" stroke-miterlimit="10" x1="328.458" y1="-56.562" x2="328.458" y2="215.495"/>
				
					<line fill="none" stroke="#FFFFFF" stroke-width="2.2073" stroke-miterlimit="10" x1="363.108" y1="-56.562" x2="363.108" y2="215.495"/>
				
					<line fill="none" stroke="#FFFFFF" stroke-width="2.2073" stroke-miterlimit="10" x1="344.17" y1="-56.562" x2="344.17" y2="215.495"/>
				
					<line fill="none" stroke="#FFFFFF" stroke-width="2.2073" stroke-miterlimit="10" x1="354.136" y1="-56.562" x2="354.136" y2="215.495"/>
				
					<line fill="none" stroke="#FFFFFF" stroke-width="2.2073" stroke-miterlimit="10" x1="384.987" y1="-56.562" x2="384.987" y2="215.495"/>
				
					<line fill="none" stroke="#FFFFFF" stroke-width="2.2073" stroke-miterlimit="10" x1="371.18" y1="-56.562" x2="371.18" y2="215.495"/>
				
					<line fill="none" stroke="#FFFFFF" stroke-width="2.2073" stroke-miterlimit="10" x1="396.167" y1="-56.562" x2="396.167" y2="215.495"/>
				
					<line fill="none" stroke="#FFFFFF" stroke-width="2.2073" stroke-miterlimit="10" x1="390.873" y1="-56.562" x2="390.873" y2="215.495"/>
				
					<line fill="none" stroke="#FFFFFF" stroke-width="2.2073" stroke-miterlimit="10" x1="378.446" y1="-56.562" x2="378.446" y2="215.495"/>
			</g>
		</g>
		<g clip-path="url(#SVGID_10_)">
			<defs>
				<polygon id="SVGID_13_" points="522.718,17.202 327.457,17.202 425.085,114.833 				"/>
			</defs>
			<clipPath id="SVGID_14_">
				<use xlink:href="#SVGID_13_"  overflow="visible"/>
			</clipPath>
			<g clip-path="url(#SVGID_14_)">
				
					<line fill="none" stroke="#FFFFFF" stroke-width="2.2073" stroke-miterlimit="10" x1="596.483" y1="105.435" x2="324.425" y2="105.435"/>
				
					<line fill="none" stroke="#FFFFFF" stroke-width="2.2073" stroke-miterlimit="10" x1="596.483" y1="102.31" x2="324.425" y2="102.31"/>
				
					<line fill="none" stroke="#FFFFFF" stroke-width="2.2073" stroke-miterlimit="10" x1="596.483" y1="98.833" x2="324.425" y2="98.833"/>
				
					<line fill="none" stroke="#FFFFFF" stroke-width="2.2073" stroke-miterlimit="10" x1="596.483" y1="108.252" x2="324.425" y2="108.252"/>
				
					<line fill="none" stroke="#FFFFFF" stroke-width="2.2073" stroke-miterlimit="10" x1="596.483" y1="113.904" x2="324.425" y2="113.904"/>
				
					<line fill="none" stroke="#FFFFFF" stroke-width="2.2073" stroke-miterlimit="10" x1="596.483" y1="90.682" x2="324.425" y2="90.682"/>
				
					<line fill="none" stroke="#FFFFFF" stroke-width="2.2073" stroke-miterlimit="10" x1="596.483" y1="112.524" x2="324.425" y2="112.524"/>
				
					<line fill="none" stroke="#FFFFFF" stroke-width="2.2073" stroke-miterlimit="10" x1="596.483" y1="110.785" x2="324.425" y2="110.785"/>
				
					<line fill="none" stroke="#FFFFFF" stroke-width="2.2073" stroke-miterlimit="10" x1="596.483" y1="94.972" x2="324.425" y2="94.972"/>
				
					<line fill="none" stroke="#FFFFFF" stroke-width="2.2073" stroke-miterlimit="10" x1="596.483" y1="18.204" x2="324.425" y2="18.204"/>
				
					<line fill="none" stroke="#FFFFFF" stroke-width="2.2073" stroke-miterlimit="10" x1="596.483" y1="52.854" x2="324.425" y2="52.854"/>
				
					<line fill="none" stroke="#FFFFFF" stroke-width="2.2073" stroke-miterlimit="10" x1="596.483" y1="33.917" x2="324.425" y2="33.917"/>
				
					<line fill="none" stroke="#FFFFFF" stroke-width="2.2073" stroke-miterlimit="10" x1="596.483" y1="43.882" x2="324.425" y2="43.882"/>
				
					<line fill="none" stroke="#FFFFFF" stroke-width="2.2073" stroke-miterlimit="10" x1="596.483" y1="74.732" x2="324.425" y2="74.732"/>
				
					<line fill="none" stroke="#FFFFFF" stroke-width="2.2073" stroke-miterlimit="10" x1="596.483" y1="60.927" x2="324.425" y2="60.927"/>
				
					<line fill="none" stroke="#FFFFFF" stroke-width="2.2073" stroke-miterlimit="10" x1="596.483" y1="85.913" x2="324.425" y2="85.913"/>
				
					<line fill="none" stroke="#FFFFFF" stroke-width="2.2073" stroke-miterlimit="10" x1="596.483" y1="80.618" x2="324.425" y2="80.618"/>
				
					<line fill="none" stroke="#FFFFFF" stroke-width="2.2073" stroke-miterlimit="10" x1="596.483" y1="68.192" x2="324.425" y2="68.192"/>
			</g>
		</g>
		<g clip-path="url(#SVGID_10_)">
			<defs>
				<polygon id="SVGID_15_" points="329.664,17.202 329.664,212.464 232.033,114.835 				"/>
			</defs>
			<clipPath id="SVGID_16_">
				<use xlink:href="#SVGID_15_"  overflow="visible"/>
			</clipPath>
			<g clip-path="url(#SVGID_16_)">
				
					<line fill="none" stroke="#FFFFFF" stroke-width="2.2073" stroke-miterlimit="10" x1="241.431" y1="-56.562" x2="241.431" y2="215.495"/>
				
					<line fill="none" stroke="#FFFFFF" stroke-width="2.2073" stroke-miterlimit="10" x1="244.557" y1="-56.562" x2="244.557" y2="215.495"/>
				
					<line fill="none" stroke="#FFFFFF" stroke-width="2.2073" stroke-miterlimit="10" x1="248.033" y1="-56.562" x2="248.033" y2="215.495"/>
				
					<line fill="none" stroke="#FFFFFF" stroke-width="2.2073" stroke-miterlimit="10" x1="238.614" y1="-56.562" x2="238.614" y2="215.495"/>
				
					<line fill="none" stroke="#FFFFFF" stroke-width="2.2073" stroke-miterlimit="10" x1="232.962" y1="-56.562" x2="232.962" y2="215.495"/>
				
					<line fill="none" stroke="#FFFFFF" stroke-width="2.2073" stroke-miterlimit="10" x1="256.184" y1="-56.562" x2="256.184" y2="215.495"/>
				
					<line fill="none" stroke="#FFFFFF" stroke-width="2.2073" stroke-miterlimit="10" x1="234.341" y1="-56.562" x2="234.341" y2="215.495"/>
				
					<line fill="none" stroke="#FFFFFF" stroke-width="2.2073" stroke-miterlimit="10" x1="236.081" y1="-56.562" x2="236.081" y2="215.495"/>
				
					<line fill="none" stroke="#FFFFFF" stroke-width="2.2073" stroke-miterlimit="10" x1="251.894" y1="-56.562" x2="251.894" y2="215.495"/>
				
					<line fill="none" stroke="#FFFFFF" stroke-width="2.2073" stroke-miterlimit="10" x1="328.662" y1="-56.562" x2="328.662" y2="215.495"/>
				
					<line fill="none" stroke="#FFFFFF" stroke-width="2.2073" stroke-miterlimit="10" x1="294.012" y1="-56.562" x2="294.012" y2="215.495"/>
				
					<line fill="none" stroke="#FFFFFF" stroke-width="2.2073" stroke-miterlimit="10" x1="312.949" y1="-56.562" x2="312.949" y2="215.495"/>
				
					<line fill="none" stroke="#FFFFFF" stroke-width="2.2073" stroke-miterlimit="10" x1="302.984" y1="-56.562" x2="302.984" y2="215.495"/>
				
					<line fill="none" stroke="#FFFFFF" stroke-width="2.2073" stroke-miterlimit="10" x1="272.133" y1="-56.562" x2="272.133" y2="215.495"/>
				
					<line fill="none" stroke="#FFFFFF" stroke-width="2.2073" stroke-miterlimit="10" x1="285.939" y1="-56.562" x2="285.939" y2="215.495"/>
				
					<line fill="none" stroke="#FFFFFF" stroke-width="2.2073" stroke-miterlimit="10" x1="260.952" y1="-56.562" x2="260.952" y2="215.495"/>
				
					<line fill="none" stroke="#FFFFFF" stroke-width="2.2073" stroke-miterlimit="10" x1="266.249" y1="-56.562" x2="266.249" y2="215.495"/>
				
					<line fill="none" stroke="#FFFFFF" stroke-width="2.2073" stroke-miterlimit="10" x1="278.673" y1="-56.562" x2="278.673" y2="215.495"/>
			</g>
		</g>
		<g clip-path="url(#SVGID_10_)">
			<defs>
				<polygon id="SVGID_17_" points="134.402,17.202 329.664,17.202 232.035,114.833 				"/>
			</defs>
			<clipPath id="SVGID_18_">
				<use xlink:href="#SVGID_17_"  overflow="visible"/>
			</clipPath>
			<g clip-path="url(#SVGID_18_)">
				
					<line fill="none" stroke="#FFFFFF" stroke-width="2.2073" stroke-miterlimit="10" x1="60.638" y1="105.435" x2="332.695" y2="105.435"/>
				
					<line fill="none" stroke="#FFFFFF" stroke-width="2.2073" stroke-miterlimit="10" x1="60.638" y1="102.31" x2="332.695" y2="102.31"/>
				
					<line fill="none" stroke="#FFFFFF" stroke-width="2.2073" stroke-miterlimit="10" x1="60.638" y1="98.833" x2="332.695" y2="98.833"/>
				
					<line fill="none" stroke="#FFFFFF" stroke-width="2.2073" stroke-miterlimit="10" x1="60.638" y1="108.252" x2="332.695" y2="108.252"/>
				
					<line fill="none" stroke="#FFFFFF" stroke-width="2.2073" stroke-miterlimit="10" x1="60.638" y1="113.904" x2="332.695" y2="113.904"/>
				
					<line fill="none" stroke="#FFFFFF" stroke-width="2.2073" stroke-miterlimit="10" x1="60.638" y1="90.682" x2="332.695" y2="90.682"/>
				
					<line fill="none" stroke="#FFFFFF" stroke-width="2.2073" stroke-miterlimit="10" x1="60.638" y1="112.524" x2="332.695" y2="112.524"/>
				
					<line fill="none" stroke="#FFFFFF" stroke-width="2.2073" stroke-miterlimit="10" x1="60.638" y1="110.785" x2="332.695" y2="110.785"/>
				
					<line fill="none" stroke="#FFFFFF" stroke-width="2.2073" stroke-miterlimit="10" x1="60.638" y1="94.972" x2="332.695" y2="94.972"/>
				
					<line fill="none" stroke="#FFFFFF" stroke-width="2.2073" stroke-miterlimit="10" x1="60.638" y1="18.204" x2="332.695" y2="18.204"/>
				
					<line fill="none" stroke="#FFFFFF" stroke-width="2.2073" stroke-miterlimit="10" x1="60.638" y1="52.854" x2="332.695" y2="52.854"/>
				
					<line fill="none" stroke="#FFFFFF" stroke-width="2.2073" stroke-miterlimit="10" x1="60.638" y1="33.917" x2="332.695" y2="33.917"/>
				
					<line fill="none" stroke="#FFFFFF" stroke-width="2.2073" stroke-miterlimit="10" x1="60.638" y1="43.882" x2="332.695" y2="43.882"/>
				
					<line fill="none" stroke="#FFFFFF" stroke-width="2.2073" stroke-miterlimit="10" x1="60.638" y1="74.732" x2="332.695" y2="74.732"/>
				
					<line fill="none" stroke="#FFFFFF" stroke-width="2.2073" stroke-miterlimit="10" x1="60.638" y1="60.927" x2="332.695" y2="60.927"/>
				
					<line fill="none" stroke="#FFFFFF" stroke-width="2.2073" stroke-miterlimit="10" x1="60.638" y1="85.913" x2="332.695" y2="85.913"/>
				
					<line fill="none" stroke="#FFFFFF" stroke-width="2.2073" stroke-miterlimit="10" x1="60.638" y1="80.618" x2="332.695" y2="80.618"/>
				
					<line fill="none" stroke="#FFFFFF" stroke-width="2.2073" stroke-miterlimit="10" x1="60.638" y1="68.192" x2="332.695" y2="68.192"/>
			</g>
		</g>
		<g clip-path="url(#SVGID_10_)">
			<defs>
				<polygon id="SVGID_19_" points="329.664,212.462 329.664,17.2 232.033,114.829 				"/>
			</defs>
			<clipPath id="SVGID_20_">
				<use xlink:href="#SVGID_19_"  overflow="visible"/>
			</clipPath>
			<g clip-path="url(#SVGID_20_)">
				
					<line fill="none" stroke="#FFFFFF" stroke-width="2.2073" stroke-miterlimit="10" x1="241.431" y1="286.226" x2="241.431" y2="14.169"/>
				
					<line fill="none" stroke="#FFFFFF" stroke-width="2.2073" stroke-miterlimit="10" x1="244.557" y1="286.226" x2="244.557" y2="14.169"/>
				
					<line fill="none" stroke="#FFFFFF" stroke-width="2.2073" stroke-miterlimit="10" x1="248.033" y1="286.226" x2="248.033" y2="14.169"/>
				
					<line fill="none" stroke="#FFFFFF" stroke-width="2.2073" stroke-miterlimit="10" x1="238.614" y1="286.226" x2="238.614" y2="14.169"/>
				
					<line fill="none" stroke="#FFFFFF" stroke-width="2.2073" stroke-miterlimit="10" x1="232.962" y1="286.226" x2="232.962" y2="14.169"/>
				
					<line fill="none" stroke="#FFFFFF" stroke-width="2.2073" stroke-miterlimit="10" x1="256.184" y1="286.226" x2="256.184" y2="14.169"/>
				
					<line fill="none" stroke="#FFFFFF" stroke-width="2.2073" stroke-miterlimit="10" x1="234.341" y1="286.226" x2="234.341" y2="14.169"/>
				
					<line fill="none" stroke="#FFFFFF" stroke-width="2.2073" stroke-miterlimit="10" x1="236.081" y1="286.226" x2="236.081" y2="14.169"/>
				
					<line fill="none" stroke="#FFFFFF" stroke-width="2.2073" stroke-miterlimit="10" x1="251.894" y1="286.226" x2="251.894" y2="14.169"/>
				
					<line fill="none" stroke="#FFFFFF" stroke-width="2.2073" stroke-miterlimit="10" x1="328.662" y1="286.226" x2="328.662" y2="14.169"/>
				
					<line fill="none" stroke="#FFFFFF" stroke-width="2.2073" stroke-miterlimit="10" x1="294.012" y1="286.226" x2="294.012" y2="14.169"/>
				
					<line fill="none" stroke="#FFFFFF" stroke-width="2.2073" stroke-miterlimit="10" x1="312.949" y1="286.226" x2="312.949" y2="14.169"/>
				
					<line fill="none" stroke="#FFFFFF" stroke-width="2.2073" stroke-miterlimit="10" x1="302.984" y1="286.226" x2="302.984" y2="14.169"/>
				
					<line fill="none" stroke="#FFFFFF" stroke-width="2.2073" stroke-miterlimit="10" x1="272.133" y1="286.226" x2="272.133" y2="14.169"/>
				
					<line fill="none" stroke="#FFFFFF" stroke-width="2.2073" stroke-miterlimit="10" x1="285.939" y1="286.226" x2="285.939" y2="14.169"/>
				
					<line fill="none" stroke="#FFFFFF" stroke-width="2.2073" stroke-miterlimit="10" x1="260.952" y1="286.226" x2="260.952" y2="14.169"/>
				
					<line fill="none" stroke="#FFFFFF" stroke-width="2.2073" stroke-miterlimit="10" x1="266.249" y1="286.226" x2="266.249" y2="14.169"/>
				
					<line fill="none" stroke="#FFFFFF" stroke-width="2.2073" stroke-miterlimit="10" x1="278.673" y1="286.226" x2="278.673" y2="14.169"/>
			</g>
		</g>
		<g clip-path="url(#SVGID_10_)">
			<defs>
				<polygon id="SVGID_21_" points="134.402,212.462 329.664,212.462 232.035,114.831 				"/>
			</defs>
			<clipPath id="SVGID_22_">
				<use xlink:href="#SVGID_21_"  overflow="visible"/>
			</clipPath>
			<g clip-path="url(#SVGID_22_)">
				
					<line fill="none" stroke="#FFFFFF" stroke-width="2.2073" stroke-miterlimit="10" x1="60.638" y1="124.229" x2="332.695" y2="124.229"/>
				
					<line fill="none" stroke="#FFFFFF" stroke-width="2.2073" stroke-miterlimit="10" x1="60.638" y1="127.354" x2="332.695" y2="127.354"/>
				
					<line fill="none" stroke="#FFFFFF" stroke-width="2.2073" stroke-miterlimit="10" x1="60.638" y1="130.832" x2="332.695" y2="130.832"/>
				
					<line fill="none" stroke="#FFFFFF" stroke-width="2.2073" stroke-miterlimit="10" x1="60.638" y1="121.413" x2="332.695" y2="121.413"/>
				
					<line fill="none" stroke="#FFFFFF" stroke-width="2.2073" stroke-miterlimit="10" x1="60.638" y1="115.761" x2="332.695" y2="115.761"/>
				
					<line fill="none" stroke="#FFFFFF" stroke-width="2.2073" stroke-miterlimit="10" x1="60.638" y1="138.981" x2="332.695" y2="138.981"/>
				
					<line fill="none" stroke="#FFFFFF" stroke-width="2.2073" stroke-miterlimit="10" x1="60.638" y1="117.14" x2="332.695" y2="117.14"/>
				
					<line fill="none" stroke="#FFFFFF" stroke-width="2.2073" stroke-miterlimit="10" x1="60.638" y1="118.879" x2="332.695" y2="118.879"/>
				
					<line fill="none" stroke="#FFFFFF" stroke-width="2.2073" stroke-miterlimit="10" x1="60.638" y1="134.693" x2="332.695" y2="134.693"/>
				
					<line fill="none" stroke="#FFFFFF" stroke-width="2.2073" stroke-miterlimit="10" x1="60.638" y1="211.46" x2="332.695" y2="211.46"/>
				
					<line fill="none" stroke="#FFFFFF" stroke-width="2.2073" stroke-miterlimit="10" x1="60.638" y1="176.811" x2="332.695" y2="176.811"/>
				
					<line fill="none" stroke="#FFFFFF" stroke-width="2.2073" stroke-miterlimit="10" x1="60.638" y1="195.747" x2="332.695" y2="195.747"/>
				
					<line fill="none" stroke="#FFFFFF" stroke-width="2.2073" stroke-miterlimit="10" x1="60.638" y1="185.781" x2="332.695" y2="185.781"/>
				
					<line fill="none" stroke="#FFFFFF" stroke-width="2.2073" stroke-miterlimit="10" x1="60.638" y1="154.931" x2="332.695" y2="154.931"/>
				
					<line fill="none" stroke="#FFFFFF" stroke-width="2.2073" stroke-miterlimit="10" x1="60.638" y1="168.738" x2="332.695" y2="168.738"/>
				
					<line fill="none" stroke="#FFFFFF" stroke-width="2.2073" stroke-miterlimit="10" x1="60.638" y1="143.751" x2="332.695" y2="143.751"/>
				
					<line fill="none" stroke="#FFFFFF" stroke-width="2.2073" stroke-miterlimit="10" x1="60.638" y1="149.047" x2="332.695" y2="149.047"/>
				
					<line fill="none" stroke="#FFFFFF" stroke-width="2.2073" stroke-miterlimit="10" x1="60.638" y1="161.472" x2="332.695" y2="161.472"/>
			</g>
		</g>
		<g clip-path="url(#SVGID_10_)">
			<defs>
				<polygon id="SVGID_23_" points="327.457,212.462 327.457,17.2 425.087,114.829 				"/>
			</defs>
			<clipPath id="SVGID_24_">
				<use xlink:href="#SVGID_23_"  overflow="visible"/>
			</clipPath>
			<g clip-path="url(#SVGID_24_)">
				
					<line fill="none" stroke="#FFFFFF" stroke-width="2.2073" stroke-miterlimit="10" x1="415.689" y1="286.226" x2="415.689" y2="14.169"/>
				
					<line fill="none" stroke="#FFFFFF" stroke-width="2.2073" stroke-miterlimit="10" x1="412.563" y1="286.226" x2="412.563" y2="14.169"/>
				
					<line fill="none" stroke="#FFFFFF" stroke-width="2.2073" stroke-miterlimit="10" x1="409.086" y1="286.226" x2="409.086" y2="14.169"/>
				
					<line fill="none" stroke="#FFFFFF" stroke-width="2.2073" stroke-miterlimit="10" x1="418.506" y1="286.226" x2="418.506" y2="14.169"/>
				
					<line fill="none" stroke="#FFFFFF" stroke-width="2.2073" stroke-miterlimit="10" x1="424.158" y1="286.226" x2="424.158" y2="14.169"/>
				
					<line fill="none" stroke="#FFFFFF" stroke-width="2.2073" stroke-miterlimit="10" x1="400.936" y1="286.226" x2="400.936" y2="14.169"/>
				
					<line fill="none" stroke="#FFFFFF" stroke-width="2.2073" stroke-miterlimit="10" x1="422.779" y1="286.226" x2="422.779" y2="14.169"/>
				
					<line fill="none" stroke="#FFFFFF" stroke-width="2.2073" stroke-miterlimit="10" x1="421.04" y1="286.226" x2="421.04" y2="14.169"/>
				
					<line fill="none" stroke="#FFFFFF" stroke-width="2.2073" stroke-miterlimit="10" x1="405.226" y1="286.226" x2="405.226" y2="14.169"/>
				
					<line fill="none" stroke="#FFFFFF" stroke-width="2.2073" stroke-miterlimit="10" x1="328.458" y1="286.226" x2="328.458" y2="14.169"/>
				
					<line fill="none" stroke="#FFFFFF" stroke-width="2.2073" stroke-miterlimit="10" x1="363.108" y1="286.226" x2="363.108" y2="14.169"/>
				
					<line fill="none" stroke="#FFFFFF" stroke-width="2.2073" stroke-miterlimit="10" x1="344.17" y1="286.226" x2="344.17" y2="14.169"/>
				
					<line fill="none" stroke="#FFFFFF" stroke-width="2.2073" stroke-miterlimit="10" x1="354.136" y1="286.226" x2="354.136" y2="14.169"/>
				
					<line fill="none" stroke="#FFFFFF" stroke-width="2.2073" stroke-miterlimit="10" x1="384.987" y1="286.226" x2="384.987" y2="14.169"/>
				
					<line fill="none" stroke="#FFFFFF" stroke-width="2.2073" stroke-miterlimit="10" x1="371.18" y1="286.226" x2="371.18" y2="14.169"/>
				
					<line fill="none" stroke="#FFFFFF" stroke-width="2.2073" stroke-miterlimit="10" x1="396.167" y1="286.226" x2="396.167" y2="14.169"/>
				
					<line fill="none" stroke="#FFFFFF" stroke-width="2.2073" stroke-miterlimit="10" x1="390.873" y1="286.226" x2="390.873" y2="14.169"/>
				
					<line fill="none" stroke="#FFFFFF" stroke-width="2.2073" stroke-miterlimit="10" x1="378.446" y1="286.226" x2="378.446" y2="14.169"/>
			</g>
		</g>
		<g clip-path="url(#SVGID_10_)">
			<defs>
				<polygon id="SVGID_25_" points="522.718,212.462 327.457,212.462 425.085,114.831 				"/>
			</defs>
			<clipPath id="SVGID_26_">
				<use xlink:href="#SVGID_25_"  overflow="visible"/>
			</clipPath>
			<g clip-path="url(#SVGID_26_)">
				
					<line fill="none" stroke="#FFFFFF" stroke-width="2.2073" stroke-miterlimit="10" x1="596.483" y1="124.229" x2="324.425" y2="124.229"/>
				
					<line fill="none" stroke="#FFFFFF" stroke-width="2.2073" stroke-miterlimit="10" x1="596.483" y1="127.354" x2="324.425" y2="127.354"/>
				
					<line fill="none" stroke="#FFFFFF" stroke-width="2.2073" stroke-miterlimit="10" x1="596.483" y1="130.832" x2="324.425" y2="130.832"/>
				
					<line fill="none" stroke="#FFFFFF" stroke-width="2.2073" stroke-miterlimit="10" x1="596.483" y1="121.413" x2="324.425" y2="121.413"/>
				
					<line fill="none" stroke="#FFFFFF" stroke-width="2.2073" stroke-miterlimit="10" x1="596.483" y1="115.761" x2="324.425" y2="115.761"/>
				
					<line fill="none" stroke="#FFFFFF" stroke-width="2.2073" stroke-miterlimit="10" x1="596.483" y1="138.981" x2="324.425" y2="138.981"/>
				
					<line fill="none" stroke="#FFFFFF" stroke-width="2.2073" stroke-miterlimit="10" x1="596.483" y1="117.14" x2="324.425" y2="117.14"/>
				
					<line fill="none" stroke="#FFFFFF" stroke-width="2.2073" stroke-miterlimit="10" x1="596.483" y1="118.879" x2="324.425" y2="118.879"/>
				
					<line fill="none" stroke="#FFFFFF" stroke-width="2.2073" stroke-miterlimit="10" x1="596.483" y1="134.693" x2="324.425" y2="134.693"/>
				
					<line fill="none" stroke="#FFFFFF" stroke-width="2.2073" stroke-miterlimit="10" x1="596.483" y1="211.46" x2="324.425" y2="211.46"/>
				
					<line fill="none" stroke="#FFFFFF" stroke-width="2.2073" stroke-miterlimit="10" x1="596.483" y1="176.811" x2="324.425" y2="176.811"/>
				
					<line fill="none" stroke="#FFFFFF" stroke-width="2.2073" stroke-miterlimit="10" x1="596.483" y1="195.747" x2="324.425" y2="195.747"/>
				
					<line fill="none" stroke="#FFFFFF" stroke-width="2.2073" stroke-miterlimit="10" x1="596.483" y1="185.781" x2="324.425" y2="185.781"/>
				
					<line fill="none" stroke="#FFFFFF" stroke-width="2.2073" stroke-miterlimit="10" x1="596.483" y1="154.931" x2="324.425" y2="154.931"/>
				
					<line fill="none" stroke="#FFFFFF" stroke-width="2.2073" stroke-miterlimit="10" x1="596.483" y1="168.738" x2="324.425" y2="168.738"/>
				
					<line fill="none" stroke="#FFFFFF" stroke-width="2.2073" stroke-miterlimit="10" x1="596.483" y1="143.751" x2="324.425" y2="143.751"/>
				
					<line fill="none" stroke="#FFFFFF" stroke-width="2.2073" stroke-miterlimit="10" x1="596.483" y1="149.047" x2="324.425" y2="149.047"/>
				
					<line fill="none" stroke="#FFFFFF" stroke-width="2.2073" stroke-miterlimit="10" x1="596.483" y1="161.472" x2="324.425" y2="161.472"/>
			</g>
		</g>
		
			<line clip-path="url(#SVGID_10_)" fill="none" stroke="#FFFFFF" stroke-width="2" stroke-miterlimit="10" x1="425.55" y1="18.565" x2="425.55" y2="212.565"/>
		
			<line clip-path="url(#SVGID_10_)" fill="none" stroke="#FFFFFF" stroke-width="2" stroke-miterlimit="10" x1="231.55" y1="18.565" x2="231.55" y2="212.565"/>
	</g>
</g>
<g>
	<g>
		<defs>
			<polygon id="SVGID_27_" points="212.55,16.127 15.55,15.899 15.55,213.456 212.55,213.683 			"/>
		</defs>
		<clipPath id="SVGID_28_">
			<use xlink:href="#SVGID_27_"  overflow="visible"/>
		</clipPath>
		<g clip-path="url(#SVGID_28_)">
			<defs>
				<polygon id="SVGID_29_" points="113.346,17.202 113.346,212.464 210.977,114.835 				"/>
			</defs>
			<clipPath id="SVGID_30_">
				<use xlink:href="#SVGID_29_"  overflow="visible"/>
			</clipPath>
		</g>
		<g clip-path="url(#SVGID_28_)">
			<defs>
				<polygon id="SVGID_31_" points="308.607,17.202 113.346,17.202 210.975,114.833 				"/>
			</defs>
			<clipPath id="SVGID_32_">
				<use xlink:href="#SVGID_31_"  overflow="visible"/>
			</clipPath>
			<g clip-path="url(#SVGID_32_)">
				
					<line fill="none" stroke="#FFFFFF" stroke-width="2.2073" stroke-miterlimit="10" x1="382.373" y1="105.435" x2="110.316" y2="105.435"/>
				
					<line fill="none" stroke="#FFFFFF" stroke-width="2.2073" stroke-miterlimit="10" x1="382.373" y1="102.31" x2="110.316" y2="102.31"/>
				
					<line fill="none" stroke="#FFFFFF" stroke-width="2.2073" stroke-miterlimit="10" x1="382.373" y1="98.833" x2="110.316" y2="98.833"/>
				
					<line fill="none" stroke="#FFFFFF" stroke-width="2.2073" stroke-miterlimit="10" x1="382.373" y1="108.252" x2="110.316" y2="108.252"/>
				
					<line fill="none" stroke="#FFFFFF" stroke-width="2.2073" stroke-miterlimit="10" x1="382.373" y1="113.904" x2="110.316" y2="113.904"/>
				
					<line fill="none" stroke="#FFFFFF" stroke-width="2.2073" stroke-miterlimit="10" x1="382.373" y1="90.682" x2="110.316" y2="90.682"/>
				
					<line fill="none" stroke="#FFFFFF" stroke-width="2.2073" stroke-miterlimit="10" x1="382.373" y1="112.524" x2="110.316" y2="112.524"/>
				
					<line fill="none" stroke="#FFFFFF" stroke-width="2.2073" stroke-miterlimit="10" x1="382.373" y1="110.785" x2="110.316" y2="110.785"/>
				
					<line fill="none" stroke="#FFFFFF" stroke-width="2.2073" stroke-miterlimit="10" x1="382.373" y1="94.972" x2="110.316" y2="94.972"/>
				
					<line fill="none" stroke="#FFFFFF" stroke-width="2.2073" stroke-miterlimit="10" x1="382.373" y1="18.204" x2="110.316" y2="18.204"/>
				
					<line fill="none" stroke="#FFFFFF" stroke-width="2.2073" stroke-miterlimit="10" x1="382.373" y1="52.854" x2="110.316" y2="52.854"/>
				
					<line fill="none" stroke="#FFFFFF" stroke-width="2.2073" stroke-miterlimit="10" x1="382.373" y1="33.917" x2="110.316" y2="33.917"/>
				
					<line fill="none" stroke="#FFFFFF" stroke-width="2.2073" stroke-miterlimit="10" x1="382.373" y1="43.882" x2="110.316" y2="43.882"/>
				
					<line fill="none" stroke="#FFFFFF" stroke-width="2.2073" stroke-miterlimit="10" x1="382.373" y1="74.732" x2="110.316" y2="74.732"/>
				
					<line fill="none" stroke="#FFFFFF" stroke-width="2.2073" stroke-miterlimit="10" x1="382.373" y1="60.927" x2="110.316" y2="60.927"/>
				
					<line fill="none" stroke="#FFFFFF" stroke-width="2.2073" stroke-miterlimit="10" x1="382.373" y1="85.913" x2="110.316" y2="85.913"/>
				
					<line fill="none" stroke="#FFFFFF" stroke-width="2.2073" stroke-miterlimit="10" x1="382.373" y1="80.618" x2="110.316" y2="80.618"/>
				
					<line fill="none" stroke="#FFFFFF" stroke-width="2.2073" stroke-miterlimit="10" x1="382.373" y1="68.192" x2="110.316" y2="68.192"/>
			</g>
		</g>
		<g clip-path="url(#SVGID_28_)">
			<defs>
				<polygon id="SVGID_33_" points="-79.708,17.202 115.554,17.202 17.925,114.833 				"/>
			</defs>
			<clipPath id="SVGID_34_">
				<use xlink:href="#SVGID_33_"  overflow="visible"/>
			</clipPath>
			<g clip-path="url(#SVGID_34_)">
				
					<line fill="none" stroke="#FFFFFF" stroke-width="2.2073" stroke-miterlimit="10" x1="-153.473" y1="105.435" x2="118.584" y2="105.435"/>
				
					<line fill="none" stroke="#FFFFFF" stroke-width="2.2073" stroke-miterlimit="10" x1="-153.473" y1="102.31" x2="118.584" y2="102.31"/>
				
					<line fill="none" stroke="#FFFFFF" stroke-width="2.2073" stroke-miterlimit="10" x1="-153.473" y1="98.833" x2="118.584" y2="98.833"/>
				
					<line fill="none" stroke="#FFFFFF" stroke-width="2.2073" stroke-miterlimit="10" x1="-153.473" y1="108.252" x2="118.584" y2="108.252"/>
				
					<line fill="none" stroke="#FFFFFF" stroke-width="2.2073" stroke-miterlimit="10" x1="-153.473" y1="113.904" x2="118.584" y2="113.904"/>
				
					<line fill="none" stroke="#FFFFFF" stroke-width="2.2073" stroke-miterlimit="10" x1="-153.473" y1="90.682" x2="118.584" y2="90.682"/>
				
					<line fill="none" stroke="#FFFFFF" stroke-width="2.2073" stroke-miterlimit="10" x1="-153.473" y1="112.524" x2="118.584" y2="112.524"/>
				
					<line fill="none" stroke="#FFFFFF" stroke-width="2.2073" stroke-miterlimit="10" x1="-153.473" y1="110.785" x2="118.584" y2="110.785"/>
				
					<line fill="none" stroke="#FFFFFF" stroke-width="2.2073" stroke-miterlimit="10" x1="-153.473" y1="94.972" x2="118.584" y2="94.972"/>
				
					<line fill="none" stroke="#FFFFFF" stroke-width="2.2073" stroke-miterlimit="10" x1="-153.473" y1="18.204" x2="118.584" y2="18.204"/>
				
					<line fill="none" stroke="#FFFFFF" stroke-width="2.2073" stroke-miterlimit="10" x1="-153.473" y1="52.854" x2="118.584" y2="52.854"/>
				
					<line fill="none" stroke="#FFFFFF" stroke-width="2.2073" stroke-miterlimit="10" x1="-153.473" y1="33.917" x2="118.584" y2="33.917"/>
				
					<line fill="none" stroke="#FFFFFF" stroke-width="2.2073" stroke-miterlimit="10" x1="-153.473" y1="43.882" x2="118.584" y2="43.882"/>
				
					<line fill="none" stroke="#FFFFFF" stroke-width="2.2073" stroke-miterlimit="10" x1="-153.473" y1="74.732" x2="118.584" y2="74.732"/>
				
					<line fill="none" stroke="#FFFFFF" stroke-width="2.2073" stroke-miterlimit="10" x1="-153.473" y1="60.927" x2="118.584" y2="60.927"/>
				
					<line fill="none" stroke="#FFFFFF" stroke-width="2.2073" stroke-miterlimit="10" x1="-153.473" y1="85.913" x2="118.584" y2="85.913"/>
				
					<line fill="none" stroke="#FFFFFF" stroke-width="2.2073" stroke-miterlimit="10" x1="-153.473" y1="80.618" x2="118.584" y2="80.618"/>
				
					<line fill="none" stroke="#FFFFFF" stroke-width="2.2073" stroke-miterlimit="10" x1="-153.473" y1="68.192" x2="118.584" y2="68.192"/>
			</g>
		</g>
		
			<line clip-path="url(#SVGID_28_)" fill="none" stroke="#FFFFFF" stroke-width="2" stroke-miterlimit="10" x1="211.55" y1="18.565" x2="211.55" y2="212.565"/>
		
			<line clip-path="url(#SVGID_28_)" fill="none" stroke="#FFFFFF" stroke-width="2" stroke-miterlimit="10" x1="16.55" y1="18.565" x2="16.55" y2="212.565"/>
	</g>
	<g>
		<defs>
			<polygon id="SVGID_35_" points="115.537,17.269 115.537,211.087 17.905,211.087 17.905,114.901 			"/>
		</defs>
		<clipPath id="SVGID_36_">
			<use xlink:href="#SVGID_35_"  overflow="visible"/>
		</clipPath>
		<g clip-path="url(#SVGID_36_)">
			
				<line fill="none" stroke="#FFFFFF" stroke-width="2.2073" stroke-miterlimit="10" x1="27.304" y1="-56.495" x2="27.304" y2="215.562"/>
			
				<line fill="none" stroke="#FFFFFF" stroke-width="2.2073" stroke-miterlimit="10" x1="30.429" y1="-56.495" x2="30.429" y2="215.562"/>
			
				<line fill="none" stroke="#FFFFFF" stroke-width="2.2073" stroke-miterlimit="10" x1="33.906" y1="-56.495" x2="33.906" y2="215.562"/>
			
				<line fill="none" stroke="#FFFFFF" stroke-width="2.2073" stroke-miterlimit="10" x1="24.486" y1="-56.495" x2="24.486" y2="215.562"/>
			
				<line fill="none" stroke="#FFFFFF" stroke-width="2.2073" stroke-miterlimit="10" x1="18.834" y1="-56.495" x2="18.834" y2="215.562"/>
			
				<line fill="none" stroke="#FFFFFF" stroke-width="2.2073" stroke-miterlimit="10" x1="42.057" y1="-56.495" x2="42.057" y2="215.562"/>
			
				<line fill="none" stroke="#FFFFFF" stroke-width="2.2073" stroke-miterlimit="10" x1="20.214" y1="-56.495" x2="20.214" y2="215.562"/>
			
				<line fill="none" stroke="#FFFFFF" stroke-width="2.2073" stroke-miterlimit="10" x1="21.954" y1="-56.495" x2="21.954" y2="215.562"/>
			
				<line fill="none" stroke="#FFFFFF" stroke-width="2.2073" stroke-miterlimit="10" x1="37.767" y1="-56.495" x2="37.767" y2="215.562"/>
			
				<line fill="none" stroke="#FFFFFF" stroke-width="2.2073" stroke-miterlimit="10" x1="114.534" y1="-56.495" x2="114.534" y2="215.562"/>
			
				<line fill="none" stroke="#FFFFFF" stroke-width="2.2073" stroke-miterlimit="10" x1="79.885" y1="-56.495" x2="79.885" y2="215.562"/>
			
				<line fill="none" stroke="#FFFFFF" stroke-width="2.2073" stroke-miterlimit="10" x1="98.822" y1="-56.495" x2="98.822" y2="215.562"/>
			
				<line fill="none" stroke="#FFFFFF" stroke-width="2.2073" stroke-miterlimit="10" x1="88.856" y1="-56.495" x2="88.856" y2="215.562"/>
			
				<line fill="none" stroke="#FFFFFF" stroke-width="2.2073" stroke-miterlimit="10" x1="58.005" y1="-56.495" x2="58.005" y2="215.562"/>
			
				<line fill="none" stroke="#FFFFFF" stroke-width="2.2073" stroke-miterlimit="10" x1="71.812" y1="-56.495" x2="71.812" y2="215.562"/>
			
				<line fill="none" stroke="#FFFFFF" stroke-width="2.2073" stroke-miterlimit="10" x1="46.825" y1="-56.495" x2="46.825" y2="215.562"/>
			
				<line fill="none" stroke="#FFFFFF" stroke-width="2.2073" stroke-miterlimit="10" x1="52.121" y1="-56.495" x2="52.121" y2="215.562"/>
			
				<line fill="none" stroke="#FFFFFF" stroke-width="2.2073" stroke-miterlimit="10" x1="64.546" y1="-56.495" x2="64.546" y2="215.562"/>
		</g>
	</g>
	<g>
		<defs>
			<polygon id="SVGID_37_" points="113.169,17.052 113.169,211.087 210.8,211.087 210.8,114.685 			"/>
		</defs>
		<clipPath id="SVGID_38_">
			<use xlink:href="#SVGID_37_"  overflow="visible"/>
		</clipPath>
		<g clip-path="url(#SVGID_38_)">
			
				<line fill="none" stroke="#FFFFFF" stroke-width="2.2073" stroke-miterlimit="10" x1="201.402" y1="-56.713" x2="201.402" y2="215.344"/>
			
				<line fill="none" stroke="#FFFFFF" stroke-width="2.2073" stroke-miterlimit="10" x1="198.276" y1="-56.713" x2="198.276" y2="215.344"/>
			
				<line fill="none" stroke="#FFFFFF" stroke-width="2.2073" stroke-miterlimit="10" x1="194.799" y1="-56.713" x2="194.799" y2="215.344"/>
			
				<line fill="none" stroke="#FFFFFF" stroke-width="2.2073" stroke-miterlimit="10" x1="204.219" y1="-56.713" x2="204.219" y2="215.344"/>
			
				<line fill="none" stroke="#FFFFFF" stroke-width="2.2073" stroke-miterlimit="10" x1="209.871" y1="-56.713" x2="209.871" y2="215.344"/>
			
				<line fill="none" stroke="#FFFFFF" stroke-width="2.2073" stroke-miterlimit="10" x1="186.649" y1="-56.713" x2="186.649" y2="215.344"/>
			
				<line fill="none" stroke="#FFFFFF" stroke-width="2.2073" stroke-miterlimit="10" x1="208.492" y1="-56.713" x2="208.492" y2="215.344"/>
			
				<line fill="none" stroke="#FFFFFF" stroke-width="2.2073" stroke-miterlimit="10" x1="206.752" y1="-56.713" x2="206.752" y2="215.344"/>
			
				<line fill="none" stroke="#FFFFFF" stroke-width="2.2073" stroke-miterlimit="10" x1="190.938" y1="-56.713" x2="190.938" y2="215.344"/>
			
				<line fill="none" stroke="#FFFFFF" stroke-width="2.2073" stroke-miterlimit="10" x1="114.172" y1="-56.713" x2="114.172" y2="215.344"/>
			
				<line fill="none" stroke="#FFFFFF" stroke-width="2.2073" stroke-miterlimit="10" x1="148.82" y1="-56.713" x2="148.82" y2="215.344"/>
			
				<line fill="none" stroke="#FFFFFF" stroke-width="2.2073" stroke-miterlimit="10" x1="129.884" y1="-56.713" x2="129.884" y2="215.344"/>
			
				<line fill="none" stroke="#FFFFFF" stroke-width="2.2073" stroke-miterlimit="10" x1="139.849" y1="-56.713" x2="139.849" y2="215.344"/>
			
				<line fill="none" stroke="#FFFFFF" stroke-width="2.2073" stroke-miterlimit="10" x1="170.699" y1="-56.713" x2="170.699" y2="215.344"/>
			
				<line fill="none" stroke="#FFFFFF" stroke-width="2.2073" stroke-miterlimit="10" x1="156.893" y1="-56.713" x2="156.893" y2="215.344"/>
			
				<line fill="none" stroke="#FFFFFF" stroke-width="2.2073" stroke-miterlimit="10" x1="181.881" y1="-56.713" x2="181.881" y2="215.344"/>
			
				<line fill="none" stroke="#FFFFFF" stroke-width="2.2073" stroke-miterlimit="10" x1="176.584" y1="-56.713" x2="176.584" y2="215.344"/>
			
				<line fill="none" stroke="#FFFFFF" stroke-width="2.2073" stroke-miterlimit="10" x1="164.16" y1="-56.713" x2="164.16" y2="215.344"/>
		</g>
	</g>
	<line fill="none" stroke="#FFFFFF" stroke-width="2" stroke-miterlimit="10" x1="210.55" y1="211.565" x2="15.55" y2="211.565"/>
</g>
</svg>
